<svg id="visual" viewBox="0 0 960 540" width="960" height="540" xmlns="http://www.w3.org/2000/svg" xmlns:xlink="http://www.w3.org/1999/xlink" version="1.1"><path d="M0 347L32 369.2C64 391.3 128 435.7 192 465.7C256 495.7 320 511.3 384 505.5C448 499.7 512 472.3 576 466.2C640 460 704 475 768 457.2C832 439.3 896 388.7 928 363.3L960 338L960 541L928 541C896 541 832 541 768 541C704 541 640 541 576 541C512 541 448 541 384 541C320 541 256 541 192 541C128 541 64 541 32 541L0 541Z" fill="#390061" stroke-linecap="round" stroke-linejoin="miter"></path></svg>