<svg id="visual" viewBox="0 0 675 900" width="675" height="900" xmlns="http://www.w3.org/2000/svg" xmlns:xlink="http://www.w3.org/1999/xlink" version="1.1"><path d="M0 739L22.5 757.3C45 775.7 90 812.3 135 837.3C180 862.3 225 875.7 270 870.8C315 866 360 843 405 837.8C450 832.7 495 845.3 540 830.5C585 815.7 630 773.3 652.5 752.2L675 731L675 901L652.5 901C630 901 585 901 540 901C495 901 450 901 405 901C360 901 315 901 270 901C225 901 180 901 135 901C90 901 45 901 22.5 901L0 901Z" fill="#390061" stroke-linecap="round" stroke-linejoin="miter"></path></svg>