<svg id="visual" viewBox="0 0 900 600" width="900" height="600" xmlns="http://www.w3.org/2000/svg" xmlns:xlink="http://www.w3.org/1999/xlink" version="1.1"><rect x="0" y="0" width="900" height="600" fill="#FFFFFF"></rect><path d="M0 576L37.5 568C75 560 150 544 225 524.8C300 505.7 375 483.3 450 490C525 496.7 600 532.3 675 551.2C750 570 825 572 862.5 573L900 574L900 601L862.5 601C825 601 750 601 675 601C600 601 525 601 450 601C375 601 300 601 225 601C150 601 75 601 37.5 601L0 601Z" fill="#4B0082" stroke-linecap="round" stroke-linejoin="miter"></path></svg>