<svg id="visual" viewBox="0 0 960 540" width="960" height="540" xmlns="http://www.w3.org/2000/svg" xmlns:xlink="http://www.w3.org/1999/xlink" version="1.1"><rect x="0" y="0" width="960" height="540" fill="#FFFFFF"></rect><path d="M0 519L40 511.7C80 504.3 160 489.7 240 472.3C320 455 400 435 480 441.2C560 447.3 640 479.7 720 496.7C800 513.7 880 515.3 920 516.2L960 517L960 541L920 541C880 541 800 541 720 541C640 541 560 541 480 541C400 541 320 541 240 541C160 541 80 541 40 541L0 541Z" fill="#4B0082" stroke-linecap="round" stroke-linejoin="miter"></path></svg>