<svg id="visual" viewBox="0 0 675 900" width="675" height="900" xmlns="http://www.w3.org/2000/svg" xmlns:xlink="http://www.w3.org/1999/xlink" version="1.1"><path d="M0 159L22.5 140.7C45 122.3 90 85.7 135 60.7C180 35.7 225 22.3 270 27.2C315 32 360 55 405 60.2C450 65.3 495 52.7 540 67.5C585 82.3 630 124.7 652.5 145.8L675 167L675 0L652.5 0C630 0 585 0 540 0C495 0 450 0 405 0C360 0 315 0 270 0C225 0 180 0 135 0C90 0 45 0 22.5 0L0 0Z" fill="#4B0082" stroke-linecap="round" stroke-linejoin="miter"></path></svg>